# xmcd
#
# Track frame offsets: 
#        150
#        16520
#        33590
#        51828
#        70893
#        89459
#        105809
#        132937
#        150382
#        165604
#        184129
#        209214
#
# Disc length: 3171 seconds
#
# Revision: 0
# Processed by: cddbd v1.5.2PL0 Copyright (c) Steve Scherf et al.
# Submitted via: ExactAudioCopy v1.3
#
DISCID=980c610c
DTITLE=Erik Sitbon - And the ghost band (Electric sessions)
DYEAR=2012
DGENRE=Blues
TTITLE0=Back to the roots
TTITLE1=Honky tonk guitar
TTITLE2=Sunflower field
TTITLE3=Ghost town
TTITLE4=My love
TTITLE5=Run to you
TTITLE6=Call me if you need my love
TTITLE7=Jenny
TTITLE8=Brand new man
TTITLE9=Wait for me
TTITLE10=About that girl
TTITLE11=Unkown
EXTD=
EXTT0=
EXTT1=
EXTT2=
EXTT3=
EXTT4=
EXTT5=
EXTT6=
EXTT7=
EXTT8=
EXTT9=
EXTT10=
EXTT11=
PLAYORDER=
